<svg xmlns="http://www.w3.org/2000/svg" xmlns:xlink="http://www.w3.org/1999/xlink" width="2410" height="472.49"><rect width="2410" height="472.49" rx="5" ry="5" class="a"/><svg y="0%" x="0%"><circle cx="20" cy="20" r="6" fill="#ff5f58"/><circle cx="40" cy="20" r="6" fill="#ffbd2e"/><circle cx="60" cy="20" r="6" fill="#18c132"/></svg><svg height="412.49" viewBox="0 0 237 41.249" width="2370" x="15" xmlns="http://www.w3.org/2000/svg" xmlns:xlink="http://www.w3.org/1999/xlink" y="50"><style>@keyframes n{0%{transform:translateX(0)}1.46%{transform:translateX(-237px)}1.83%{transform:translateX(-948px)}1.84%{transform:translateX(-1422px)}7.2%{transform:translateX(-1659px)}8.35%{transform:translateX(-1896px)}9.12%{transform:translateX(-2133px)}10.5%{transform:translateX(-2370px)}11.19%{transform:translateX(-2607px)}11.85%{transform:translateX(-2844px)}12.94%{transform:translateX(-3081px)}13.86%{transform:translateX(-3318px)}16.33%{transform:translateX(-3555px)}20.28%{transform:translateX(-3792px)}21.6%{transform:translateX(-4029px)}22.56%{transform:translateX(-4266px)}23.46%{transform:translateX(-4503px)}24.44%{transform:translateX(-4740px)}25.63%{transform:translateX(-4977px)}26.28%{transform:translateX(-5214px)}27.23%{transform:translateX(-5451px)}28.81%{transform:translateX(-5688px)}29.94%{transform:translateX(-5925px)}32.43%{transform:translateX(-6162px)}34.81%{transform:translateX(-6399px)}36.39%{transform:translateX(-6636px)}37.49%{transform:translateX(-6873px)}38.55%{transform:translateX(-7110px)}40.05%{transform:translateX(-7347px)}42.49%{transform:translateX(-7584px)}43.45%{transform:translateX(-7821px)}43.94%{transform:translateX(-8058px)}47.22%{transform:translateX(-8295px)}49.61%{transform:translateX(-8532px)}54.43%{transform:translateX(-8769px)}55.09%{transform:translateX(-9006px)}57.6%{transform:translateX(-9243px)}58.74%{transform:translateX(-9480px)}59.81%{transform:translateX(-9717px)}60.77%{transform:translateX(-9954px)}61.85%{transform:translateX(-10191px)}62.91%{transform:translateX(-10428px)}64.88%{transform:translateX(-10665px)}65.94%{transform:translateX(-10902px)}67.31%{transform:translateX(-11139px)}67.87%{transform:translateX(-11376px)}68.79%{transform:translateX(-11613px)}69.48%{transform:translateX(-11850px)}70.27%{transform:translateX(-12087px)}71.43%{transform:translateX(-12324px)}74.62%{transform:translateX(-12561px)}74.7%{transform:translateX(-12798px)}74.72%{transform:translateX(-13035px)}77.42%{transform:translateX(-13272px)}77.44%{transform:translateX(-13509px)}77.92%{transform:translateX(-14220px)}78.26%{transform:translateX(-14694px)}78.57%{transform:translateX(-15168px)}78.58%{transform:translateX(-15405px)}78.59%{transform:translateX(-16116px)}78.62%{transform:translateX(-16353px)}78.68%{transform:translateX(-16590px)}78.99%{transform:translateX(-17064px)}79%{transform:translateX(-17538px)}79.01%{transform:translateX(-17775px)}to{transform:translateX(-18012px)}}.a{fill:#282d35}.h{fill:#d290e4}.i{fill:#a8cc8c}.j{fill:#b9c0cb}.k{fill:#dbab79}.l,.p{fill:#a8cc8c;font-weight:700}.p{fill:#e88388}.q{fill:#66c2cd}</style><g font-size="1.67" font-family="Monaco,Consolas,Menlo,'Bitstream Vera Sans Mono','Powerline Symbols',monospace"><defs><symbol id="1"><text y="1.67" fill="#71bef2" font-weight="700">open-weather-cli</text><text x="17.034" y="1.67" fill="#6f7783">git/master*</text></symbol><symbol id="2"><text y="1.67" class="h">❯</text></symbol><symbol id="3"><text y="1.67" class="h">❯</text><text x="2.004" y="1.67" class="i">weather</text></symbol><symbol id="4"><text y="1.67" class="h">❯</text><text x="2.004" y="1.67" class="i">weather</text><text x="10.02" y="1.67" class="j">--location</text></symbol><symbol id="5"><text y="1.67" class="h">❯</text><text x="2.004" y="1.67" class="i">weather</text><text x="10.02" y="1.67" class="j">--location</text><text x="21.042" y="1.67" class="k">&quot;New</text></symbol><symbol id="6"><text y="1.67" class="h">❯</text><text x="2.004" y="1.67" class="i">weather</text><text x="10.02" y="1.67" class="j">--location</text><text x="21.042" y="1.67" class="k">&quot;New</text><text x="26.052" y="1.67" class="k">York&quot;</text></symbol><symbol id="7"><text y="1.67" class="h">❯</text><text x="2.004" y="1.67" class="i">weather</text><text x="10.02" y="1.67" class="j">--location</text><text x="21.042" y="1.67" class="k">&quot;New</text><text x="26.052" y="1.67" class="k">York&quot;</text><text x="32.064" y="1.67" class="j">--units</text></symbol><symbol id="8"><text y="1.67" class="h">❯</text><text x="2.004" y="1.67" class="i">weather</text><text x="10.02" y="1.67" class="j">--location</text><text x="21.042" y="1.67" class="k">&quot;New</text><text x="26.052" y="1.67" class="k">York&quot;</text><text x="32.064" y="1.67" class="j">--units</text><text x="40.08" y="1.67" class="j">imperial</text></symbol><symbol id="9"><text y="1.67" class="i">✔</text><text x="2.004" y="1.67" class="j">Weather</text><text x="10.02" y="1.67" class="j">report:</text></symbol><symbol id="10"><text y="1.67" class="l">New</text><text x="4.008" y="1.67" class="l">York</text></symbol><symbol id="11"><text y="1.67" class="j">Temperature:</text><text x="13.026" y="1.67" class="j">48.49</text><text x="19.038" y="1.67" class="j">Fahrenheit</text></symbol><symbol id="12"><text y="1.67" class="j">--------</text></symbol><symbol id="13"><text y="1.67" class="j">Pressure:</text><text x="10.02" y="1.67" class="j">1020</text><text x="15.03" y="1.67" class="j">HPa</text></symbol><symbol id="14"><text y="1.67" class="j">Humidity:</text><text x="10.02" y="1.67" class="j">57</text><text x="13.026" y="1.67" class="j">%</text></symbol><symbol id="15"><text y="1.67" class="j">Cloudiness:</text><text x="12.024" y="1.67" class="j">90</text><text x="15.03" y="1.67" class="j">%</text></symbol><symbol id="16"><text y="1.67" class="j">Wind</text><text x="5.01" y="1.67" class="j">speed:</text><text x="12.024" y="1.67" class="j">3.09</text><text x="17.034" y="1.67" class="j">km/h</text></symbol><symbol id="a"><path fill="transparent" d="M0 0h237v19H0z"/></symbol></defs><path class="a" d="M0 0h237v41.249H0z"/><g style="animation-duration:21.659284s;animation-iteration-count:infinite;animation-name:n;animation-timing-function:steps(1,end)"><svg width="18249"><svg><use xlink:href="#a"/></svg><svg x="237"><use xlink:href="#a"/></svg><svg x="474"><use xlink:href="#a"/><use xlink:href="#1" y="2.171"/></svg><svg x="711"><use xlink:href="#a"/><use xlink:href="#1" y="2.171"/></svg><svg x="948"><use xlink:href="#a"/><use xlink:href="#1" y="2.171"/><use xlink:href="#2" y="4.342"/></svg><svg x="1185"><use xlink:href="#a"/><use xlink:href="#1" y="2.171"/><use xlink:href="#2" y="4.342"/></svg><svg x="1422"><use xlink:href="#a"/><use xlink:href="#1" y="2.171"/><use xlink:href="#2" y="4.342"/></svg><svg x="1659"><use xlink:href="#a"/><use xlink:href="#1" y="2.171"/><text y="6.012" class="h">❯</text><text x="2.004" y="6.012" class="i">w</text></svg><svg x="1896"><use xlink:href="#a"/><use xlink:href="#1" y="2.171"/><text y="6.012" class="h">❯</text><text x="2.004" y="6.012" class="p">we</text></svg><svg x="2133"><use xlink:href="#a"/><use xlink:href="#1" y="2.171"/><text y="6.012" class="h">❯</text><text x="2.004" y="6.012" class="p">wea</text></svg><svg x="2370"><use xlink:href="#a"/><use xlink:href="#1" y="2.171"/><text y="6.012" class="h">❯</text><text x="2.004" y="6.012" class="p">weat</text></svg><svg x="2607"><use xlink:href="#a"/><use xlink:href="#1" y="2.171"/><text y="6.012" class="h">❯</text><text x="2.004" y="6.012" class="p">weath</text></svg><svg x="2844"><use xlink:href="#a"/><use xlink:href="#1" y="2.171"/><text y="6.012" class="h">❯</text><text x="2.004" y="6.012" class="p">weathe</text></svg><svg x="3081"><use xlink:href="#a"/><use xlink:href="#1" y="2.171"/><use xlink:href="#3" y="4.342"/></svg><svg x="3318"><use xlink:href="#a"/><use xlink:href="#1" y="2.171"/><use xlink:href="#3" y="4.342"/></svg><svg x="3555"><use xlink:href="#a"/><use xlink:href="#1" y="2.171"/><text y="6.012" class="h">❯</text><text x="2.004" y="6.012" class="i">weather</text><text x="10.02" y="6.012" class="j">-</text></svg><svg x="3792"><use xlink:href="#a"/><use xlink:href="#1" y="2.171"/><text y="6.012" class="h">❯</text><text x="2.004" y="6.012" class="i">weather</text><text x="10.02" y="6.012" class="j">--</text></svg><svg x="4029"><use xlink:href="#a"/><use xlink:href="#1" y="2.171"/><text y="6.012" class="h">❯</text><text x="2.004" y="6.012" class="i">weather</text><text x="10.02" y="6.012" class="j">--l</text></svg><svg x="4266"><use xlink:href="#a"/><use xlink:href="#1" y="2.171"/><text y="6.012" class="h">❯</text><text x="2.004" y="6.012" class="i">weather</text><text x="10.02" y="6.012" class="j">--lo</text></svg><svg x="4503"><use xlink:href="#a"/><use xlink:href="#1" y="2.171"/><text y="6.012" class="h">❯</text><text x="2.004" y="6.012" class="i">weather</text><text x="10.02" y="6.012" class="j">--loc</text></svg><svg x="4740"><use xlink:href="#a"/><use xlink:href="#1" y="2.171"/><text y="6.012" class="h">❯</text><text x="2.004" y="6.012" class="i">weather</text><text x="10.02" y="6.012" class="j">--loca</text></svg><svg x="4977"><use xlink:href="#a"/><use xlink:href="#1" y="2.171"/><text y="6.012" class="h">❯</text><text x="2.004" y="6.012" class="i">weather</text><text x="10.02" y="6.012" class="j">--locat</text></svg><svg x="5214"><use xlink:href="#a"/><use xlink:href="#1" y="2.171"/><text y="6.012" class="h">❯</text><text x="2.004" y="6.012" class="i">weather</text><text x="10.02" y="6.012" class="j">--locati</text></svg><svg x="5451"><use xlink:href="#a"/><use xlink:href="#1" y="2.171"/><text y="6.012" class="h">❯</text><text x="2.004" y="6.012" class="i">weather</text><text x="10.02" y="6.012" class="j">--locatio</text></svg><svg x="5688"><use xlink:href="#a"/><use xlink:href="#1" y="2.171"/><use xlink:href="#4" y="4.342"/></svg><svg x="5925"><use xlink:href="#a"/><use xlink:href="#1" y="2.171"/><use xlink:href="#4" y="4.342"/></svg><svg x="6162"><use xlink:href="#a"/><use xlink:href="#1" y="2.171"/><text y="6.012" class="h">❯</text><text x="2.004" y="6.012" class="i">weather</text><text x="10.02" y="6.012" class="j">--location</text><text x="21.042" y="6.012" class="k">&quot;</text></svg><svg x="6399"><use xlink:href="#a"/><use xlink:href="#1" y="2.171"/><text y="6.012" class="h">❯</text><text x="2.004" y="6.012" class="i">weather</text><text x="10.02" y="6.012" class="j">--location</text><text x="21.042" y="6.012" class="k">&quot;N</text></svg><svg x="6636"><use xlink:href="#a"/><use xlink:href="#1" y="2.171"/><text y="6.012" class="h">❯</text><text x="2.004" y="6.012" class="i">weather</text><text x="10.02" y="6.012" class="j">--location</text><text x="21.042" y="6.012" class="k">&quot;Ne</text></svg><svg x="6873"><use xlink:href="#a"/><use xlink:href="#1" y="2.171"/><use xlink:href="#5" y="4.342"/></svg><svg x="7110"><use xlink:href="#a"/><use xlink:href="#1" y="2.171"/><use xlink:href="#5" y="4.342"/></svg><svg x="7347"><use xlink:href="#a"/><use xlink:href="#1" y="2.171"/><text y="6.012" class="h">❯</text><text x="2.004" y="6.012" class="i">weather</text><text x="10.02" y="6.012" class="j">--location</text><text x="21.042" y="6.012" class="k">&quot;New</text><text x="26.052" y="6.012" class="k">Y</text></svg><svg x="7584"><use xlink:href="#a"/><use xlink:href="#1" y="2.171"/><text y="6.012" class="h">❯</text><text x="2.004" y="6.012" class="i">weather</text><text x="10.02" y="6.012" class="j">--location</text><text x="21.042" y="6.012" class="k">&quot;New</text><text x="26.052" y="6.012" class="k">Yo</text></svg><svg x="7821"><use xlink:href="#a"/><use xlink:href="#1" y="2.171"/><text y="6.012" class="h">❯</text><text x="2.004" y="6.012" class="i">weather</text><text x="10.02" y="6.012" class="j">--location</text><text x="21.042" y="6.012" class="k">&quot;New</text><text x="26.052" y="6.012" class="k">Yor</text></svg><svg x="8058"><use xlink:href="#a"/><use xlink:href="#1" y="2.171"/><text y="6.012" class="h">❯</text><text x="2.004" y="6.012" class="i">weather</text><text x="10.02" y="6.012" class="j">--location</text><text x="21.042" y="6.012" class="k">&quot;New</text><text x="26.052" y="6.012" class="k">York</text></svg><svg x="8295"><use xlink:href="#a"/><use xlink:href="#1" y="2.171"/><use xlink:href="#6" y="4.342"/></svg><svg x="8532"><use xlink:href="#a"/><use xlink:href="#1" y="2.171"/><use xlink:href="#6" y="4.342"/></svg><svg x="8769"><use xlink:href="#a"/><use xlink:href="#1" y="2.171"/><text y="6.012" class="h">❯</text><text x="2.004" y="6.012" class="i">weather</text><text x="10.02" y="6.012" class="j">--location</text><text x="21.042" y="6.012" class="k">&quot;New</text><text x="26.052" y="6.012" class="k">York&quot;</text><text x="32.064" y="6.012" class="j">-</text></svg><svg x="9006"><use xlink:href="#a"/><use xlink:href="#1" y="2.171"/><text y="6.012" class="h">❯</text><text x="2.004" y="6.012" class="i">weather</text><text x="10.02" y="6.012" class="j">--location</text><text x="21.042" y="6.012" class="k">&quot;New</text><text x="26.052" y="6.012" class="k">York&quot;</text><text x="32.064" y="6.012" class="j">--</text></svg><svg x="9243"><use xlink:href="#a"/><use xlink:href="#1" y="2.171"/><text y="6.012" class="h">❯</text><text x="2.004" y="6.012" class="i">weather</text><text x="10.02" y="6.012" class="j">--location</text><text x="21.042" y="6.012" class="k">&quot;New</text><text x="26.052" y="6.012" class="k">York&quot;</text><text x="32.064" y="6.012" class="j">--u</text></svg><svg x="9480"><use xlink:href="#a"/><use xlink:href="#1" y="2.171"/><text y="6.012" class="h">❯</text><text x="2.004" y="6.012" class="i">weather</text><text x="10.02" y="6.012" class="j">--location</text><text x="21.042" y="6.012" class="k">&quot;New</text><text x="26.052" y="6.012" class="k">York&quot;</text><text x="32.064" y="6.012" class="j">--un</text></svg><svg x="9717"><use xlink:href="#a"/><use xlink:href="#1" y="2.171"/><text y="6.012" class="h">❯</text><text x="2.004" y="6.012" class="i">weather</text><text x="10.02" y="6.012" class="j">--location</text><text x="21.042" y="6.012" class="k">&quot;New</text><text x="26.052" y="6.012" class="k">York&quot;</text><text x="32.064" y="6.012" class="j">--uni</text></svg><svg x="9954"><use xlink:href="#a"/><use xlink:href="#1" y="2.171"/><text y="6.012" class="h">❯</text><text x="2.004" y="6.012" class="i">weather</text><text x="10.02" y="6.012" class="j">--location</text><text x="21.042" y="6.012" class="k">&quot;New</text><text x="26.052" y="6.012" class="k">York&quot;</text><text x="32.064" y="6.012" class="j">--unit</text></svg><svg x="10191"><use xlink:href="#a"/><use xlink:href="#1" y="2.171"/><use xlink:href="#7" y="4.342"/></svg><svg x="10428"><use xlink:href="#a"/><use xlink:href="#1" y="2.171"/><use xlink:href="#7" y="4.342"/></svg><svg x="10665"><use xlink:href="#a"/><use xlink:href="#1" y="2.171"/><text y="6.012" class="h">❯</text><text x="2.004" y="6.012" class="i">weather</text><text x="10.02" y="6.012" class="j">--location</text><text x="21.042" y="6.012" class="k">&quot;New</text><text x="26.052" y="6.012" class="k">York&quot;</text><text x="32.064" y="6.012" class="j">--units</text><text x="40.08" y="6.012" class="j">i</text></svg><svg x="10902"><use xlink:href="#a"/><use xlink:href="#1" y="2.171"/><text y="6.012" class="h">❯</text><text x="2.004" y="6.012" class="i">weather</text><text x="10.02" y="6.012" class="j">--location</text><text x="21.042" y="6.012" class="k">&quot;New</text><text x="26.052" y="6.012" class="k">York&quot;</text><text x="32.064" y="6.012" class="j">--units</text><text x="40.08" y="6.012" class="j">im</text></svg><svg x="11139"><use xlink:href="#a"/><use xlink:href="#1" y="2.171"/><text y="6.012" class="h">❯</text><text x="2.004" y="6.012" class="i">weather</text><text x="10.02" y="6.012" class="j">--location</text><text x="21.042" y="6.012" class="k">&quot;New</text><text x="26.052" y="6.012" class="k">York&quot;</text><text x="32.064" y="6.012" class="j">--units</text><text x="40.08" y="6.012" class="j">imp</text></svg><svg x="11376"><use xlink:href="#a"/><use xlink:href="#1" y="2.171"/><text y="6.012" class="h">❯</text><text x="2.004" y="6.012" class="i">weather</text><text x="10.02" y="6.012" class="j">--location</text><text x="21.042" y="6.012" class="k">&quot;New</text><text x="26.052" y="6.012" class="k">York&quot;</text><text x="32.064" y="6.012" class="j">--units</text><text x="40.08" y="6.012" class="j">impe</text></svg><svg x="11613"><use xlink:href="#a"/><use xlink:href="#1" y="2.171"/><text y="6.012" class="h">❯</text><text x="2.004" y="6.012" class="i">weather</text><text x="10.02" y="6.012" class="j">--location</text><text x="21.042" y="6.012" class="k">&quot;New</text><text x="26.052" y="6.012" class="k">York&quot;</text><text x="32.064" y="6.012" class="j">--units</text><text x="40.08" y="6.012" class="j">imper</text></svg><svg x="11850"><use xlink:href="#a"/><use xlink:href="#1" y="2.171"/><text y="6.012" class="h">❯</text><text x="2.004" y="6.012" class="i">weather</text><text x="10.02" y="6.012" class="j">--location</text><text x="21.042" y="6.012" class="k">&quot;New</text><text x="26.052" y="6.012" class="k">York&quot;</text><text x="32.064" y="6.012" class="j">--units</text><text x="40.08" y="6.012" class="j">imperi</text></svg><svg x="12087"><use xlink:href="#a"/><use xlink:href="#1" y="2.171"/><text y="6.012" class="h">❯</text><text x="2.004" y="6.012" class="i">weather</text><text x="10.02" y="6.012" class="j">--location</text><text x="21.042" y="6.012" class="k">&quot;New</text><text x="26.052" y="6.012" class="k">York&quot;</text><text x="32.064" y="6.012" class="j">--units</text><text x="40.08" y="6.012" class="j">imperia</text></svg><svg x="12324"><use xlink:href="#a"/><use xlink:href="#1" y="2.171"/><use xlink:href="#8" y="4.342"/></svg><svg x="12561"><use xlink:href="#a"/><use xlink:href="#1" y="2.171"/><use xlink:href="#8" y="4.342"/></svg><svg x="12798"><use xlink:href="#a"/><use xlink:href="#1" y="2.171"/><use xlink:href="#8" y="4.342"/></svg><svg x="13035"><use xlink:href="#a"/><use xlink:href="#1" y="2.171"/><use xlink:href="#8" y="4.342"/></svg><svg x="13272"><use xlink:href="#a"/><use xlink:href="#1" y="2.171"/><use xlink:href="#8" y="4.342"/></svg><svg x="13509"><use xlink:href="#a"/><use xlink:href="#1" y="2.171"/><use xlink:href="#8" y="4.342"/><text y="8.183" class="q">⠋</text><text x="2.004" y="8.183" class="j">Fetching</text><text x="11.022" y="8.183" class="j">data...</text></svg><svg x="13746"><use xlink:href="#a"/><use xlink:href="#1" y="2.171"/><use xlink:href="#8" y="4.342"/></svg><svg x="13983"><use xlink:href="#a"/><use xlink:href="#1" y="2.171"/><use xlink:href="#8" y="4.342"/></svg><svg x="14220"><use xlink:href="#a"/><use xlink:href="#1" y="2.171"/><use xlink:href="#8" y="4.342"/><text y="8.183" class="q">⠙</text><text x="2.004" y="8.183" class="j">Fetching</text><text x="11.022" y="8.183" class="j">data...</text></svg><svg x="14457"><use xlink:href="#a"/><use xlink:href="#1" y="2.171"/><use xlink:href="#8" y="4.342"/></svg><svg x="14694"><use xlink:href="#a"/><use xlink:href="#1" y="2.171"/><use xlink:href="#8" y="4.342"/><text y="8.183" class="q">⠹</text><text x="2.004" y="8.183" class="j">Fetching</text><text x="11.022" y="8.183" class="j">data...</text></svg><svg x="14931"><use xlink:href="#a"/><use xlink:href="#1" y="2.171"/><use xlink:href="#8" y="4.342"/></svg><svg x="15168"><use xlink:href="#a"/><use xlink:href="#1" y="2.171"/><use xlink:href="#8" y="4.342"/><use xlink:href="#9" y="6.513"/></svg><svg x="15405"><use xlink:href="#a"/><use xlink:href="#1" y="2.171"/><use xlink:href="#8" y="4.342"/><use xlink:href="#9" y="6.513"/><use xlink:href="#10" y="10.855"/></svg><svg x="15642"><use xlink:href="#a"/><use xlink:href="#1" y="2.171"/><use xlink:href="#8" y="4.342"/><use xlink:href="#9" y="6.513"/><use xlink:href="#10" y="10.855"/><use xlink:href="#11" y="15.197"/><use xlink:href="#12" y="17.368"/><use xlink:href="#13" y="19.539"/></svg><svg x="15879"><use xlink:href="#a"/><use xlink:href="#1" y="2.171"/><use xlink:href="#8" y="4.342"/><use xlink:href="#9" y="6.513"/><use xlink:href="#10" y="10.855"/><use xlink:href="#11" y="15.197"/><use xlink:href="#12" y="17.368"/><use xlink:href="#13" y="19.539"/><use xlink:href="#14" y="21.71"/><use xlink:href="#15" y="23.881"/></svg><svg x="16116"><use xlink:href="#a"/><use xlink:href="#1" y="2.171"/><use xlink:href="#8" y="4.342"/><use xlink:href="#9" y="6.513"/><use xlink:href="#10" y="10.855"/><use xlink:href="#11" y="15.197"/><use xlink:href="#12" y="17.368"/><use xlink:href="#13" y="19.539"/><use xlink:href="#14" y="21.71"/><use xlink:href="#15" y="23.881"/><use xlink:href="#16" y="26.052"/></svg><svg x="16353"><use xlink:href="#a"/><use xlink:href="#1" y="2.171"/><use xlink:href="#8" y="4.342"/><use xlink:href="#9" y="6.513"/><use xlink:href="#10" y="10.855"/><use xlink:href="#11" y="15.197"/><use xlink:href="#12" y="17.368"/><use xlink:href="#13" y="19.539"/><use xlink:href="#14" y="21.71"/><use xlink:href="#15" y="23.881"/><use xlink:href="#16" y="26.052"/></svg><svg x="16590"><use xlink:href="#a"/><use xlink:href="#1" y="2.171"/><use xlink:href="#8" y="4.342"/><use xlink:href="#9" y="6.513"/><use xlink:href="#10" y="10.855"/><use xlink:href="#11" y="15.197"/><use xlink:href="#12" y="17.368"/><use xlink:href="#13" y="19.539"/><use xlink:href="#14" y="21.71"/><use xlink:href="#15" y="23.881"/><use xlink:href="#16" y="26.052"/></svg><svg x="16827"><use xlink:href="#a"/><use xlink:href="#1" y="2.171"/><use xlink:href="#8" y="4.342"/><use xlink:href="#9" y="6.513"/><use xlink:href="#10" y="10.855"/><use xlink:href="#11" y="15.197"/><use xlink:href="#12" y="17.368"/><use xlink:href="#13" y="19.539"/><use xlink:href="#14" y="21.71"/><use xlink:href="#15" y="23.881"/><use xlink:href="#16" y="26.052"/><use xlink:href="#1" y="32.565"/></svg><svg x="17064"><use xlink:href="#a"/><use xlink:href="#1" y="2.171"/><use xlink:href="#8" y="4.342"/><use xlink:href="#9" y="6.513"/><use xlink:href="#10" y="10.855"/><use xlink:href="#11" y="15.197"/><use xlink:href="#12" y="17.368"/><use xlink:href="#13" y="19.539"/><use xlink:href="#14" y="21.71"/><use xlink:href="#15" y="23.881"/><use xlink:href="#16" y="26.052"/><use xlink:href="#1" y="32.565"/></svg><svg x="17301"><use xlink:href="#a"/><use xlink:href="#1" y="2.171"/><use xlink:href="#8" y="4.342"/><use xlink:href="#9" y="6.513"/><use xlink:href="#10" y="10.855"/><use xlink:href="#11" y="15.197"/><use xlink:href="#12" y="17.368"/><use xlink:href="#13" y="19.539"/><use xlink:href="#14" y="21.71"/><use xlink:href="#15" y="23.881"/><use xlink:href="#16" y="26.052"/><use xlink:href="#1" y="32.565"/><use xlink:href="#2" y="34.736"/></svg><svg x="17538"><use xlink:href="#a"/><use xlink:href="#1" y="2.171"/><use xlink:href="#8" y="4.342"/><use xlink:href="#9" y="6.513"/><use xlink:href="#10" y="10.855"/><use xlink:href="#11" y="15.197"/><use xlink:href="#12" y="17.368"/><use xlink:href="#13" y="19.539"/><use xlink:href="#14" y="21.71"/><use xlink:href="#15" y="23.881"/><use xlink:href="#16" y="26.052"/><use xlink:href="#1" y="32.565"/><use xlink:href="#2" y="34.736"/></svg><svg x="17775"><use xlink:href="#a"/><use xlink:href="#1" y="2.171"/><use xlink:href="#8" y="4.342"/><use xlink:href="#9" y="6.513"/><use xlink:href="#10" y="10.855"/><use xlink:href="#11" y="15.197"/><use xlink:href="#12" y="17.368"/><use xlink:href="#13" y="19.539"/><use xlink:href="#14" y="21.71"/><use xlink:href="#15" y="23.881"/><use xlink:href="#16" y="26.052"/><use xlink:href="#1" y="32.565"/><use xlink:href="#2" y="34.736"/></svg><svg x="18012"><use xlink:href="#a"/><use xlink:href="#1" y="2.171"/><use xlink:href="#8" y="4.342"/><use xlink:href="#9" y="6.513"/><use xlink:href="#10" y="10.855"/><use xlink:href="#11" y="15.197"/><use xlink:href="#12" y="17.368"/><use xlink:href="#13" y="19.539"/><use xlink:href="#14" y="21.71"/><use xlink:href="#15" y="23.881"/><use xlink:href="#16" y="26.052"/><use xlink:href="#1" y="32.565"/><use xlink:href="#2" y="34.736"/></svg></svg></g></g></svg></svg>