<svg xmlns="http://www.w3.org/2000/svg" xmlns:xlink="http://www.w3.org/1999/xlink" width="920" height="711.3"><rect width="920" height="711.3" rx="5" ry="5" class="a"/><svg y="0%" x="0%"><circle cx="20" cy="20" r="6" fill="#ff5f58"/><circle cx="40" cy="20" r="6" fill="#ffbd2e"/><circle cx="60" cy="20" r="6" fill="#18c132"/></svg><svg height="651.3" viewBox="0 0 88 65.13" width="880" x="15" xmlns="http://www.w3.org/2000/svg" xmlns:xlink="http://www.w3.org/1999/xlink" y="50"><style>@keyframes l{0%{transform:translateX(0)}1.44%{transform:translateX(-88px)}1.67%{transform:translateX(-176px)}1.68%{transform:translateX(-440px)}1.69%{transform:translateX(-528px)}5.28%{transform:translateX(-616px)}6.47%{transform:translateX(-704px)}7.33%{transform:translateX(-792px)}8.79%{transform:translateX(-880px)}9.57%{transform:translateX(-968px)}10.45%{transform:translateX(-1056px)}11.68%{transform:translateX(-1144px)}13.33%{transform:translateX(-1232px)}17.64%{transform:translateX(-1320px)}20.07%{transform:translateX(-1408px)}22.46%{transform:translateX(-1496px)}23.4%{transform:translateX(-1584px)}24.12%{transform:translateX(-1672px)}25.15%{transform:translateX(-1760px)}26.51%{transform:translateX(-1848px)}27.22%{transform:translateX(-1936px)}28.27%{transform:translateX(-2024px)}31.13%{transform:translateX(-2112px)}31.98%{transform:translateX(-2200px)}34.07%{transform:translateX(-2288px)}36.5%{transform:translateX(-2376px)}37.15%{transform:translateX(-2464px)}38.38%{transform:translateX(-2552px)}39.11%{transform:translateX(-2640px)}41.05%{transform:translateX(-2728px)}42.29%{transform:translateX(-2816px)}44.7%{transform:translateX(-2904px)}45.43%{transform:translateX(-2992px)}48.16%{transform:translateX(-3080px)}49.35%{transform:translateX(-3168px)}50.54%{transform:translateX(-3256px)}51.53%{transform:translateX(-3344px)}53.02%{transform:translateX(-3432px)}54.23%{transform:translateX(-3520px)}56.96%{transform:translateX(-3608px)}58.4%{transform:translateX(-3696px)}60.44%{transform:translateX(-3784px)}61.42%{transform:translateX(-3872px)}62.89%{transform:translateX(-3960px)}63.77%{transform:translateX(-4048px)}64.79%{transform:translateX(-4136px)}67.96%{transform:translateX(-4224px)}73.33%{transform:translateX(-4312px)}73.39%{transform:translateX(-4400px)}73.41%{transform:translateX(-4488px)}76.03%{transform:translateX(-4576px)}76.05%{transform:translateX(-4664px)}76.51%{transform:translateX(-4928px)}76.86%{transform:translateX(-5016px)}76.87%{transform:translateX(-5104px)}77.26%{transform:translateX(-5192px)}77.27%{transform:translateX(-5280px)}77.28%{transform:translateX(-5720px)}77.31%{transform:translateX(-5808px)}77.35%{transform:translateX(-5896px)}77.45%{transform:translateX(-6160px)}77.46%{transform:translateX(-6336px)}to{transform:translateX(-6424px)}}.a{fill:#282d35}.g{fill:#d290e4}.h{fill:#a8cc8c}.i,.n{fill:#b9c0cb}.n{text-decoration:underline}.o{fill:#66c2cd}</style><g font-size="1.67" font-family="Monaco,Consolas,Menlo,'Bitstream Vera Sans Mono','Powerline Symbols',monospace"><defs><symbol id="1"><text y="1.67" fill="#71bef2">~</text></symbol><symbol id="2"><text y="1.67" class="g">❯</text></symbol><symbol id="3"><text y="1.67" class="g">❯</text><text x="2.004" y="1.67" class="h">weather</text></symbol><symbol id="4"><text y="1.67" class="g">❯</text><text x="2.004" y="1.67" class="h">weather</text><text x="10.02" y="1.67" class="i">--location</text></symbol><symbol id="5"><text y="1.67" class="g">❯</text><text x="2.004" y="1.67" class="h">weather</text><text x="10.02" y="1.67" class="i">--location</text><text x="21.042" y="1.67" class="i">Boston</text></symbol><symbol id="6"><text y="1.67" class="g">❯</text><text x="2.004" y="1.67" class="h">weather</text><text x="10.02" y="1.67" class="i">--location</text><text x="21.042" y="1.67" class="i">Boston</text><text x="28.056" y="1.67" class="i">--units</text></symbol><symbol id="7"><text y="1.67" class="g">❯</text><text x="2.004" y="1.67" class="h">weather</text><text x="10.02" y="1.67" class="i">--location</text><text x="21.042" y="1.67" class="i">Boston</text><text x="28.056" y="1.67" class="i">--units</text><text x="36.072" y="1.67" class="i">imperial</text></symbol><symbol id="8"><text y="1.67" class="h">✔</text><text x="2.004" y="1.67" class="i">Weather</text><text x="10.02" y="1.67" class="i">report:</text></symbol><symbol id="9"><text y="1.67" fill="#a8cc8c" font-weight="700">Boston</text></symbol><symbol id="10"><text y="1.67" class="i">Temperature:</text><text x="13.026" y="1.67" class="i">46.26</text><text x="19.038" y="1.67" class="i">Fahrenheit</text></symbol><symbol id="11"><text y="1.67" class="i">--------</text></symbol><symbol id="12"><text y="1.67" class="i">Pressure:</text><text x="10.02" y="1.67" class="i">1019</text><text x="15.03" y="1.67" class="i">HPa</text></symbol><symbol id="13"><text y="1.67" class="i">Humidity:</text><text x="10.02" y="1.67" class="i">29</text><text x="13.026" y="1.67" class="i">%</text></symbol><symbol id="14"><text y="1.67" class="i">Cloudiness:</text><text x="12.024" y="1.67" class="i">40</text><text x="15.03" y="1.67" class="i">%</text></symbol><symbol id="15"><text y="1.67" class="i">Wind</text><text x="5.01" y="1.67" class="i">speed:</text><text x="12.024" y="1.67" class="i">5.82</text><text x="17.034" y="1.67" class="i">km/h</text></symbol><symbol id="a"><path fill="transparent" d="M0 0h88v30H0z"/></symbol></defs><path class="a" d="M0 0h88v65.13H0z"/><g style="animation-duration:20.619059s;animation-iteration-count:infinite;animation-name:l;animation-timing-function:steps(1,end)"><svg width="6512"><svg><use xlink:href="#a"/></svg><svg x="88"><use xlink:href="#a"/></svg><svg x="176"><use xlink:href="#a"/><use xlink:href="#1" y="2.171"/></svg><svg x="264"><use xlink:href="#a"/><use xlink:href="#1" y="2.171"/></svg><svg x="352"><use xlink:href="#a"/><use xlink:href="#1" y="2.171"/><use xlink:href="#2" y="4.342"/></svg><svg x="440"><use xlink:href="#a"/><use xlink:href="#1" y="2.171"/><use xlink:href="#2" y="4.342"/></svg><svg x="528"><use xlink:href="#a"/><use xlink:href="#1" y="2.171"/><use xlink:href="#2" y="4.342"/></svg><svg x="616"><use xlink:href="#a"/><use xlink:href="#1" y="2.171"/><text y="6.012" class="g">❯</text><text x="2.004" y="6.012" class="h">w</text></svg><svg x="704"><use xlink:href="#a"/><use xlink:href="#1" y="2.171"/><text y="6.012" class="g">❯</text><text x="2.004" y="6.012" class="n">we</text></svg><svg x="792"><use xlink:href="#a"/><use xlink:href="#1" y="2.171"/><text y="6.012" class="g">❯</text><text x="2.004" y="6.012" class="n">wea</text></svg><svg x="880"><use xlink:href="#a"/><use xlink:href="#1" y="2.171"/><text y="6.012" class="g">❯</text><text x="2.004" y="6.012" class="n">weat</text></svg><svg x="968"><use xlink:href="#a"/><use xlink:href="#1" y="2.171"/><text y="6.012" class="g">❯</text><text x="2.004" y="6.012" class="n">weath</text></svg><svg x="1056"><use xlink:href="#a"/><use xlink:href="#1" y="2.171"/><text y="6.012" class="g">❯</text><text x="2.004" y="6.012" class="n">weathe</text></svg><svg x="1144"><use xlink:href="#a"/><use xlink:href="#1" y="2.171"/><use xlink:href="#3" y="4.342"/></svg><svg x="1232"><use xlink:href="#a"/><use xlink:href="#1" y="2.171"/><use xlink:href="#3" y="4.342"/></svg><svg x="1320"><use xlink:href="#a"/><use xlink:href="#1" y="2.171"/><text y="6.012" class="g">❯</text><text x="2.004" y="6.012" class="h">weather</text><text x="10.02" y="6.012" class="i">-</text></svg><svg x="1408"><use xlink:href="#a"/><use xlink:href="#1" y="2.171"/><text y="6.012" class="g">❯</text><text x="2.004" y="6.012" class="h">weather</text><text x="10.02" y="6.012" class="i">--</text></svg><svg x="1496"><use xlink:href="#a"/><use xlink:href="#1" y="2.171"/><text y="6.012" class="g">❯</text><text x="2.004" y="6.012" class="h">weather</text><text x="10.02" y="6.012" class="i">--l</text></svg><svg x="1584"><use xlink:href="#a"/><use xlink:href="#1" y="2.171"/><text y="6.012" class="g">❯</text><text x="2.004" y="6.012" class="h">weather</text><text x="10.02" y="6.012" class="i">--lo</text></svg><svg x="1672"><use xlink:href="#a"/><use xlink:href="#1" y="2.171"/><text y="6.012" class="g">❯</text><text x="2.004" y="6.012" class="h">weather</text><text x="10.02" y="6.012" class="i">--loc</text></svg><svg x="1760"><use xlink:href="#a"/><use xlink:href="#1" y="2.171"/><text y="6.012" class="g">❯</text><text x="2.004" y="6.012" class="h">weather</text><text x="10.02" y="6.012" class="i">--loca</text></svg><svg x="1848"><use xlink:href="#a"/><use xlink:href="#1" y="2.171"/><text y="6.012" class="g">❯</text><text x="2.004" y="6.012" class="h">weather</text><text x="10.02" y="6.012" class="i">--locat</text></svg><svg x="1936"><use xlink:href="#a"/><use xlink:href="#1" y="2.171"/><text y="6.012" class="g">❯</text><text x="2.004" y="6.012" class="h">weather</text><text x="10.02" y="6.012" class="i">--locati</text></svg><svg x="2024"><use xlink:href="#a"/><use xlink:href="#1" y="2.171"/><text y="6.012" class="g">❯</text><text x="2.004" y="6.012" class="h">weather</text><text x="10.02" y="6.012" class="i">--locatio</text></svg><svg x="2112"><use xlink:href="#a"/><use xlink:href="#1" y="2.171"/><use xlink:href="#4" y="4.342"/></svg><svg x="2200"><use xlink:href="#a"/><use xlink:href="#1" y="2.171"/><use xlink:href="#4" y="4.342"/></svg><svg x="2288"><use xlink:href="#a"/><use xlink:href="#1" y="2.171"/><text y="6.012" class="g">❯</text><text x="2.004" y="6.012" class="h">weather</text><text x="10.02" y="6.012" class="i">--location</text><text x="21.042" y="6.012" class="i">B</text></svg><svg x="2376"><use xlink:href="#a"/><use xlink:href="#1" y="2.171"/><text y="6.012" class="g">❯</text><text x="2.004" y="6.012" class="h">weather</text><text x="10.02" y="6.012" class="i">--location</text><text x="21.042" y="6.012" class="i">Bo</text></svg><svg x="2464"><use xlink:href="#a"/><use xlink:href="#1" y="2.171"/><text y="6.012" class="g">❯</text><text x="2.004" y="6.012" class="h">weather</text><text x="10.02" y="6.012" class="i">--location</text><text x="21.042" y="6.012" class="i">Bos</text></svg><svg x="2552"><use xlink:href="#a"/><use xlink:href="#1" y="2.171"/><text y="6.012" class="g">❯</text><text x="2.004" y="6.012" class="h">weather</text><text x="10.02" y="6.012" class="i">--location</text><text x="21.042" y="6.012" class="i">Bost</text></svg><svg x="2640"><use xlink:href="#a"/><use xlink:href="#1" y="2.171"/><text y="6.012" class="g">❯</text><text x="2.004" y="6.012" class="h">weather</text><text x="10.02" y="6.012" class="i">--location</text><text x="21.042" y="6.012" class="i">Bosto</text></svg><svg x="2728"><use xlink:href="#a"/><use xlink:href="#1" y="2.171"/><use xlink:href="#5" y="4.342"/></svg><svg x="2816"><use xlink:href="#a"/><use xlink:href="#1" y="2.171"/><use xlink:href="#5" y="4.342"/></svg><svg x="2904"><use xlink:href="#a"/><use xlink:href="#1" y="2.171"/><text y="6.012" class="g">❯</text><text x="2.004" y="6.012" class="h">weather</text><text x="10.02" y="6.012" class="i">--location</text><text x="21.042" y="6.012" class="i">Boston</text><text x="28.056" y="6.012" class="i">-</text></svg><svg x="2992"><use xlink:href="#a"/><use xlink:href="#1" y="2.171"/><text y="6.012" class="g">❯</text><text x="2.004" y="6.012" class="h">weather</text><text x="10.02" y="6.012" class="i">--location</text><text x="21.042" y="6.012" class="i">Boston</text><text x="28.056" y="6.012" class="i">--</text></svg><svg x="3080"><use xlink:href="#a"/><use xlink:href="#1" y="2.171"/><text y="6.012" class="g">❯</text><text x="2.004" y="6.012" class="h">weather</text><text x="10.02" y="6.012" class="i">--location</text><text x="21.042" y="6.012" class="i">Boston</text><text x="28.056" y="6.012" class="i">--u</text></svg><svg x="3168"><use xlink:href="#a"/><use xlink:href="#1" y="2.171"/><text y="6.012" class="g">❯</text><text x="2.004" y="6.012" class="h">weather</text><text x="10.02" y="6.012" class="i">--location</text><text x="21.042" y="6.012" class="i">Boston</text><text x="28.056" y="6.012" class="i">--un</text></svg><svg x="3256"><use xlink:href="#a"/><use xlink:href="#1" y="2.171"/><text y="6.012" class="g">❯</text><text x="2.004" y="6.012" class="h">weather</text><text x="10.02" y="6.012" class="i">--location</text><text x="21.042" y="6.012" class="i">Boston</text><text x="28.056" y="6.012" class="i">--uni</text></svg><svg x="3344"><use xlink:href="#a"/><use xlink:href="#1" y="2.171"/><text y="6.012" class="g">❯</text><text x="2.004" y="6.012" class="h">weather</text><text x="10.02" y="6.012" class="i">--location</text><text x="21.042" y="6.012" class="i">Boston</text><text x="28.056" y="6.012" class="i">--unit</text></svg><svg x="3432"><use xlink:href="#a"/><use xlink:href="#1" y="2.171"/><use xlink:href="#6" y="4.342"/></svg><svg x="3520"><use xlink:href="#a"/><use xlink:href="#1" y="2.171"/><use xlink:href="#6" y="4.342"/></svg><svg x="3608"><use xlink:href="#a"/><use xlink:href="#1" y="2.171"/><text y="6.012" class="g">❯</text><text x="2.004" y="6.012" class="h">weather</text><text x="10.02" y="6.012" class="i">--location</text><text x="21.042" y="6.012" class="i">Boston</text><text x="28.056" y="6.012" class="i">--units</text><text x="36.072" y="6.012" class="i">i</text></svg><svg x="3696"><use xlink:href="#a"/><use xlink:href="#1" y="2.171"/><text y="6.012" class="g">❯</text><text x="2.004" y="6.012" class="h">weather</text><text x="10.02" y="6.012" class="i">--location</text><text x="21.042" y="6.012" class="i">Boston</text><text x="28.056" y="6.012" class="i">--units</text><text x="36.072" y="6.012" class="i">im</text></svg><svg x="3784"><use xlink:href="#a"/><use xlink:href="#1" y="2.171"/><text y="6.012" class="g">❯</text><text x="2.004" y="6.012" class="h">weather</text><text x="10.02" y="6.012" class="i">--location</text><text x="21.042" y="6.012" class="i">Boston</text><text x="28.056" y="6.012" class="i">--units</text><text x="36.072" y="6.012" class="i">imp</text></svg><svg x="3872"><use xlink:href="#a"/><use xlink:href="#1" y="2.171"/><text y="6.012" class="g">❯</text><text x="2.004" y="6.012" class="h">weather</text><text x="10.02" y="6.012" class="i">--location</text><text x="21.042" y="6.012" class="i">Boston</text><text x="28.056" y="6.012" class="i">--units</text><text x="36.072" y="6.012" class="i">impe</text></svg><svg x="3960"><use xlink:href="#a"/><use xlink:href="#1" y="2.171"/><text y="6.012" class="g">❯</text><text x="2.004" y="6.012" class="h">weather</text><text x="10.02" y="6.012" class="i">--location</text><text x="21.042" y="6.012" class="i">Boston</text><text x="28.056" y="6.012" class="i">--units</text><text x="36.072" y="6.012" class="i">imper</text></svg><svg x="4048"><use xlink:href="#a"/><use xlink:href="#1" y="2.171"/><text y="6.012" class="g">❯</text><text x="2.004" y="6.012" class="h">weather</text><text x="10.02" y="6.012" class="i">--location</text><text x="21.042" y="6.012" class="i">Boston</text><text x="28.056" y="6.012" class="i">--units</text><text x="36.072" y="6.012" class="i">imperi</text></svg><svg x="4136"><use xlink:href="#a"/><use xlink:href="#1" y="2.171"/><text y="6.012" class="g">❯</text><text x="2.004" y="6.012" class="h">weather</text><text x="10.02" y="6.012" class="i">--location</text><text x="21.042" y="6.012" class="i">Boston</text><text x="28.056" y="6.012" class="i">--units</text><text x="36.072" y="6.012" class="i">imperia</text></svg><svg x="4224"><use xlink:href="#a"/><use xlink:href="#1" y="2.171"/><use xlink:href="#7" y="4.342"/></svg><svg x="4312"><use xlink:href="#a"/><use xlink:href="#1" y="2.171"/><use xlink:href="#7" y="4.342"/></svg><svg x="4400"><use xlink:href="#a"/><use xlink:href="#1" y="2.171"/><use xlink:href="#7" y="4.342"/></svg><svg x="4488"><use xlink:href="#a"/><use xlink:href="#1" y="2.171"/><use xlink:href="#7" y="4.342"/></svg><svg x="4576"><use xlink:href="#a"/><use xlink:href="#1" y="2.171"/><use xlink:href="#7" y="4.342"/></svg><svg x="4664"><use xlink:href="#a"/><use xlink:href="#1" y="2.171"/><use xlink:href="#7" y="4.342"/><text y="8.183" class="o">⠋</text><text x="2.004" y="8.183" class="i">Fetching</text><text x="11.022" y="8.183" class="i">data...</text></svg><svg x="4752"><use xlink:href="#a"/><use xlink:href="#1" y="2.171"/><use xlink:href="#7" y="4.342"/></svg><svg x="4840"><use xlink:href="#a"/><use xlink:href="#1" y="2.171"/><use xlink:href="#7" y="4.342"/></svg><svg x="4928"><use xlink:href="#a"/><use xlink:href="#1" y="2.171"/><use xlink:href="#7" y="4.342"/><text y="8.183" class="o">⠙</text><text x="2.004" y="8.183" class="i">Fetching</text><text x="11.022" y="8.183" class="i">data...</text></svg><svg x="5016"><use xlink:href="#a"/><use xlink:href="#1" y="2.171"/><use xlink:href="#7" y="4.342"/></svg><svg x="5104"><use xlink:href="#a"/><use xlink:href="#1" y="2.171"/><use xlink:href="#7" y="4.342"/><text y="8.183" class="o">⠹</text><text x="2.004" y="8.183" class="i">Fetching</text><text x="11.022" y="8.183" class="i">data...</text></svg><svg x="5192"><use xlink:href="#a"/><use xlink:href="#1" y="2.171"/><use xlink:href="#7" y="4.342"/></svg><svg x="5280"><use xlink:href="#a"/><use xlink:href="#1" y="2.171"/><use xlink:href="#7" y="4.342"/><use xlink:href="#8" y="6.513"/></svg><svg x="5368"><use xlink:href="#a"/><use xlink:href="#1" y="2.171"/><use xlink:href="#7" y="4.342"/><use xlink:href="#8" y="6.513"/><use xlink:href="#9" y="10.855"/></svg><svg x="5456"><use xlink:href="#a"/><use xlink:href="#1" y="2.171"/><use xlink:href="#7" y="4.342"/><use xlink:href="#8" y="6.513"/><use xlink:href="#9" y="10.855"/><use xlink:href="#10" y="15.197"/></svg><svg x="5544"><use xlink:href="#a"/><use xlink:href="#1" y="2.171"/><use xlink:href="#7" y="4.342"/><use xlink:href="#8" y="6.513"/><use xlink:href="#9" y="10.855"/><use xlink:href="#10" y="15.197"/><use xlink:href="#11" y="17.368"/></svg><svg x="5632"><use xlink:href="#a"/><use xlink:href="#1" y="2.171"/><use xlink:href="#7" y="4.342"/><use xlink:href="#8" y="6.513"/><use xlink:href="#9" y="10.855"/><use xlink:href="#10" y="15.197"/><use xlink:href="#11" y="17.368"/><use xlink:href="#12" y="19.539"/><use xlink:href="#13" y="21.71"/></svg><svg x="5720"><use xlink:href="#a"/><use xlink:href="#1" y="2.171"/><use xlink:href="#7" y="4.342"/><use xlink:href="#8" y="6.513"/><use xlink:href="#9" y="10.855"/><use xlink:href="#10" y="15.197"/><use xlink:href="#11" y="17.368"/><use xlink:href="#12" y="19.539"/><use xlink:href="#13" y="21.71"/><use xlink:href="#14" y="23.881"/><use xlink:href="#15" y="26.052"/></svg><svg x="5808"><use xlink:href="#a"/><use xlink:href="#1" y="2.171"/><use xlink:href="#7" y="4.342"/><use xlink:href="#8" y="6.513"/><use xlink:href="#9" y="10.855"/><use xlink:href="#10" y="15.197"/><use xlink:href="#11" y="17.368"/><use xlink:href="#12" y="19.539"/><use xlink:href="#13" y="21.71"/><use xlink:href="#14" y="23.881"/><use xlink:href="#15" y="26.052"/></svg><svg x="5896"><use xlink:href="#a"/><use xlink:href="#1" y="2.171"/><use xlink:href="#7" y="4.342"/><use xlink:href="#8" y="6.513"/><use xlink:href="#9" y="10.855"/><use xlink:href="#10" y="15.197"/><use xlink:href="#11" y="17.368"/><use xlink:href="#12" y="19.539"/><use xlink:href="#13" y="21.71"/><use xlink:href="#14" y="23.881"/><use xlink:href="#15" y="26.052"/></svg><svg x="5984"><use xlink:href="#a"/><use xlink:href="#1" y="2.171"/><use xlink:href="#7" y="4.342"/><use xlink:href="#8" y="6.513"/><use xlink:href="#9" y="10.855"/><use xlink:href="#10" y="15.197"/><use xlink:href="#11" y="17.368"/><use xlink:href="#12" y="19.539"/><use xlink:href="#13" y="21.71"/><use xlink:href="#14" y="23.881"/><use xlink:href="#15" y="26.052"/><use xlink:href="#1" y="32.565"/></svg><svg x="6072"><use xlink:href="#a"/><use xlink:href="#1" y="2.171"/><use xlink:href="#7" y="4.342"/><use xlink:href="#8" y="6.513"/><use xlink:href="#9" y="10.855"/><use xlink:href="#10" y="15.197"/><use xlink:href="#11" y="17.368"/><use xlink:href="#12" y="19.539"/><use xlink:href="#13" y="21.71"/><use xlink:href="#14" y="23.881"/><use xlink:href="#15" y="26.052"/><use xlink:href="#1" y="32.565"/></svg><svg x="6160"><use xlink:href="#a"/><use xlink:href="#1" y="2.171"/><use xlink:href="#7" y="4.342"/><use xlink:href="#8" y="6.513"/><use xlink:href="#9" y="10.855"/><use xlink:href="#10" y="15.197"/><use xlink:href="#11" y="17.368"/><use xlink:href="#12" y="19.539"/><use xlink:href="#13" y="21.71"/><use xlink:href="#14" y="23.881"/><use xlink:href="#15" y="26.052"/><use xlink:href="#1" y="32.565"/><use xlink:href="#2" y="34.736"/></svg><svg x="6248"><use xlink:href="#a"/><use xlink:href="#1" y="2.171"/><use xlink:href="#7" y="4.342"/><use xlink:href="#8" y="6.513"/><use xlink:href="#9" y="10.855"/><use xlink:href="#10" y="15.197"/><use xlink:href="#11" y="17.368"/><use xlink:href="#12" y="19.539"/><use xlink:href="#13" y="21.71"/><use xlink:href="#14" y="23.881"/><use xlink:href="#15" y="26.052"/><use xlink:href="#1" y="32.565"/><use xlink:href="#2" y="34.736"/></svg><svg x="6336"><use xlink:href="#a"/><use xlink:href="#1" y="2.171"/><use xlink:href="#7" y="4.342"/><use xlink:href="#8" y="6.513"/><use xlink:href="#9" y="10.855"/><use xlink:href="#10" y="15.197"/><use xlink:href="#11" y="17.368"/><use xlink:href="#12" y="19.539"/><use xlink:href="#13" y="21.71"/><use xlink:href="#14" y="23.881"/><use xlink:href="#15" y="26.052"/><use xlink:href="#1" y="32.565"/><use xlink:href="#2" y="34.736"/></svg><svg x="6424"><use xlink:href="#a"/><use xlink:href="#1" y="2.171"/><use xlink:href="#7" y="4.342"/><use xlink:href="#8" y="6.513"/><use xlink:href="#9" y="10.855"/><use xlink:href="#10" y="15.197"/><use xlink:href="#11" y="17.368"/><use xlink:href="#12" y="19.539"/><use xlink:href="#13" y="21.71"/><use xlink:href="#14" y="23.881"/><use xlink:href="#15" y="26.052"/><use xlink:href="#1" y="32.565"/><use xlink:href="#2" y="34.736"/></svg></svg></g></g></svg></svg>