<svg xmlns="http://www.w3.org/2000/svg" xmlns:xlink="http://www.w3.org/1999/xlink" width="920" height="711.3"><rect width="920" height="711.3" rx="5" ry="5" class="a"/><svg y="0%" x="0%"><circle cx="20" cy="20" r="6" fill="#ff5f58"/><circle cx="40" cy="20" r="6" fill="#ffbd2e"/><circle cx="60" cy="20" r="6" fill="#18c132"/></svg><svg height="651.3" viewBox="0 0 88 65.13" width="880" x="15" xmlns="http://www.w3.org/2000/svg" xmlns:xlink="http://www.w3.org/1999/xlink" y="50"><style>@keyframes j{0%{transform:translateX(0)}64.6%{transform:translateX(-88px)}65%{transform:translateX(-176px)}76.1%{transform:translateX(-352px)}76.2%{transform:translateX(-440px)}84.8%{transform:translateX(-616px)}94.1%{transform:translateX(-704px)}94.2%{transform:translateX(-792px)}99%{transform:translateX(-968px)}99.3%{transform:translateX(-1056px)}99.4%{transform:translateX(-1232px)}99.5%{transform:translateX(-1320px)}to{transform:translateX(-1408px)}}.a{fill:#282d35}.g{fill:#b9c0cb}.l{fill:#66c2cd}</style><g font-size="1.67" font-family="Monaco,Consolas,Menlo,'Bitstream Vera Sans Mono','Powerline Symbols',monospace"><defs><symbol id="1"><text y="1.67" fill="#a8cc8c">✔</text><text x="2.004" y="1.67" class="g">Weather</text><text x="10.02" y="1.67" class="g">report:</text></symbol><symbol id="2"><text y="1.67" fill="#a8cc8c" font-weight="700">Boston</text></symbol><symbol id="3"><text y="1.67" class="g">Temperature:</text><text x="13.026" y="1.67" class="g">7.92</text><text x="18.036" y="1.67" class="g">Celsius</text></symbol><symbol id="4"><text y="1.67" class="g">--------</text></symbol><symbol id="5"><text y="1.67" class="g">Pressure:</text><text x="10.02" y="1.67" class="g">1019</text><text x="15.03" y="1.67" class="g">HPa</text></symbol><symbol id="6"><text y="1.67" class="g">Humidity:</text><text x="10.02" y="1.67" class="g">29</text><text x="13.026" y="1.67" class="g">%</text></symbol><symbol id="7"><text y="1.67" class="g">Cloudiness:</text><text x="12.024" y="1.67" class="g">40</text><text x="15.03" y="1.67" class="g">%</text></symbol><symbol id="8"><text y="1.67" class="g">Wind</text><text x="5.01" y="1.67" class="g">speed:</text><text x="12.024" y="1.67" class="g">2.6</text><text x="16.032" y="1.67" class="g">km/h</text></symbol><symbol id="a"><path fill="transparent" d="M0 0h88v30H0z"/></symbol></defs><path class="a" d="M0 0h88v65.13H0z"/><g style="animation-duration:.857579s;animation-iteration-count:infinite;animation-name:j;animation-timing-function:steps(1,end)"><svg width="1496"><svg><use xlink:href="#a"/></svg><svg x="88"><use xlink:href="#a"/></svg><svg x="176"><use xlink:href="#a"/><text y="1.67" class="l">⠋</text><text x="2.004" y="1.67" class="g">Fetching</text><text x="11.022" y="1.67" class="g">data...</text></svg><svg x="264"><use xlink:href="#a"/></svg><svg x="352"><use xlink:href="#a"/></svg><svg x="440"><use xlink:href="#a"/><text y="1.67" class="l">⠙</text><text x="2.004" y="1.67" class="g">Fetching</text><text x="11.022" y="1.67" class="g">data...</text></svg><svg x="528"><use xlink:href="#a"/></svg><svg x="616"><use xlink:href="#a"/><text y="1.67" class="l">⠹</text><text x="2.004" y="1.67" class="g">Fetching</text><text x="11.022" y="1.67" class="g">data...</text></svg><svg x="704"><use xlink:href="#a"/></svg><svg x="792"><use xlink:href="#a"/><text y="1.67" class="l">⠸</text><text x="2.004" y="1.67" class="g">Fetching</text><text x="11.022" y="1.67" class="g">data...</text></svg><svg x="880"><use xlink:href="#a"/></svg><svg x="968"><use xlink:href="#a"/><use xlink:href="#1"/></svg><svg x="1056"><use xlink:href="#a"/><use xlink:href="#1"/><use xlink:href="#2" y="4.342"/></svg><svg x="1144"><use xlink:href="#a"/><use xlink:href="#1"/><use xlink:href="#2" y="4.342"/><use xlink:href="#3" y="8.684"/><use xlink:href="#4" y="10.855"/><use xlink:href="#5" y="13.026"/></svg><svg x="1232"><use xlink:href="#a"/><use xlink:href="#1"/><use xlink:href="#2" y="4.342"/><use xlink:href="#3" y="8.684"/><use xlink:href="#4" y="10.855"/><use xlink:href="#5" y="13.026"/><use xlink:href="#6" y="15.197"/><use xlink:href="#7" y="17.368"/></svg><svg x="1320"><use xlink:href="#a"/><use xlink:href="#1"/><use xlink:href="#2" y="4.342"/><use xlink:href="#3" y="8.684"/><use xlink:href="#4" y="10.855"/><use xlink:href="#5" y="13.026"/><use xlink:href="#6" y="15.197"/><use xlink:href="#7" y="17.368"/><use xlink:href="#8" y="19.539"/></svg><svg x="1408"><use xlink:href="#a"/><use xlink:href="#1"/><use xlink:href="#2" y="4.342"/><use xlink:href="#3" y="8.684"/><use xlink:href="#4" y="10.855"/><use xlink:href="#5" y="13.026"/><use xlink:href="#6" y="15.197"/><use xlink:href="#7" y="17.368"/><use xlink:href="#8" y="19.539"/></svg></svg></g></g></svg></svg>